<?xml version="1.0" standalone="no"?>
<!DOCTYPE svg PUBLIC "-//W3C//DTD SVG 20010904//EN"
 "http://www.w3.org/TR/2001/REC-SVG-20010904/DTD/svg10.dtd">
<svg version="1.0" xmlns="http://www.w3.org/2000/svg"
 width="260.000000pt" height="260.000000pt" viewBox="0 0 260.000000 260.000000"
 preserveAspectRatio="xMidYMid meet">
<metadata>
Created by potrace 1.11, written by Peter Selinger 2001-2013
</metadata>
<g transform="translate(0.000000,260.000000) scale(0.100000,-0.100000)"
fill="#000000" stroke="none">
<path d="M1159 2596 c-2 -2 -22 -6 -44 -10 -42 -6 -80 -13 -117 -21 -13 -3
-36 -8 -53 -11 -16 -4 -34 -10 -40 -14 -5 -4 -22 -10 -38 -14 -83 -20 -325
-157 -405 -230 -143 -129 -255 -274 -326 -419 -45 -91 -100 -249 -110 -317 -3
-19 -8 -46 -11 -60 -3 -14 -8 -75 -12 -137 -5 -110 0 -168 15 -159 5 3 123 8
263 11 387 10 530 14 694 19 l150 6 -50 -45 c-27 -25 -56 -45 -65 -46 -8 0
-24 -2 -35 -5 -11 -2 -40 -6 -65 -9 -25 -3 -52 -8 -60 -10 -8 -2 -37 -7 -65
-11 -27 -3 -54 -9 -59 -11 -7 -5 -225 -9 -674 -13 -33 0 -33 -1 -27 -37 10
-68 43 -177 79 -262 172 -407 551 -704 991 -775 131 -21 353 -15 475 13 52 12
100 23 105 24 6 2 15 6 21 9 6 4 23 9 38 12 38 7 39 8 37 69 -2 92 -44 160
-117 191 -32 14 -158 44 -184 44 -8 0 -37 3 -65 7 -27 4 -57 8 -65 8 -29 -1
-146 30 -183 49 -52 26 -159 134 -187 188 -16 31 -23 62 -23 101 0 96 46 157
248 329 126 107 141 123 172 188 19 41 23 62 18 89 -11 63 -65 130 -157 198
-60 43 -58 117 7 205 39 53 42 55 65 40 13 -8 13 -12 0 -32 -74 -115 -70 -152
18 -195 32 -15 59 -31 60 -35 2 -5 8 -8 13 -8 9 0 47 -30 82 -65 56 -57 67
-147 26 -228 -33 -64 -52 -89 -168 -222 -100 -116 -133 -196 -102 -253 11 -20
91 -89 91 -77 0 3 10 0 22 -6 12 -6 42 -13 67 -15 25 -1 46 -3 46 -4 0 -1 79
-4 175 -5 96 -1 202 -5 235 -9 142 -15 158 -17 166 -22 5 -3 18 -7 30 -9 81
-16 178 -97 191 -160 3 -16 17 -3 66 58 139 175 226 372 266 602 7 41 10 75 7
76 -24 4 -238 11 -336 12 -117 1 -207 -4 -513 -27 -72 -5 -72 -5 -61 16 7 12
16 27 20 32 5 6 17 21 27 33 14 18 31 23 97 28 86 7 122 11 230 22 39 5 177 7
308 6 l238 -2 -5 87 c-7 108 -10 129 -35 235 -40 168 -117 329 -226 471 -109
144 -258 275 -395 347 -25 13 -48 28 -51 32 -3 5 -10 9 -15 9 -5 0 -25 7 -44
15 -19 9 -39 17 -45 19 -5 2 -43 15 -83 29 -64 23 -104 33 -207 52 -34 6 -331
14 -336 9z m152 -406 c9 -8 31 -28 50 -45 19 -16 82 -74 142 -128 l107 -99
-40 -29 c-23 -17 -46 -26 -52 -23 -15 9 -138 100 -158 117 -9 7 -36 27 -61 44
l-46 32 -41 -37 c-84 -76 -228 -208 -258 -237 -100 -94 -103 -96 -124 -83 -11
7 -22 19 -25 26 -4 11 74 112 129 168 6 6 38 41 71 79 33 38 69 78 80 91 11
12 52 58 90 102 l70 80 25 -21 c14 -12 32 -29 41 -37z m629 -188 c8 -9 80 -96
159 -192 80 -96 147 -177 150 -180 4 -3 37 -43 75 -90 38 -47 75 -92 82 -100
11 -13 5 -15 -52 -14 l-64 1 -185 179 c-102 99 -189 180 -195 182 -5 2 -55
-23 -112 -56 -119 -68 -186 -106 -244 -138 l-42 -22 -26 27 c-14 15 -26 31
-26 37 0 5 30 32 65 59 36 28 65 53 65 58 0 4 4 7 9 7 5 0 22 11 37 25 84 72
280 234 284 234 3 1 12 -7 20 -17z m-1366 -248 c22 -19 82 -75 135 -123 117
-108 159 -147 233 -214 32 -29 58 -54 58 -57 0 -3 -24 -5 -54 -4 -50 1 -62 6
-187 89 -74 49 -146 97 -161 107 l-26 18 -100 -113 -100 -113 -56 0 -56 0 28
47 c82 143 238 398 242 398 3 0 23 -15 44 -35z"/>
</g>
</svg>
